<?xml version="1.0" encoding="utf-8"?>
<!-- Generator: Adobe Illustrator 24.0.1, SVG Export Plug-In . SVG Version: 6.00 Build 0)  -->
<svg version="1.1" id="Layer_1" xmlns="http://www.w3.org/2000/svg" xmlns:xlink="http://www.w3.org/1999/xlink" x="0px" y="0px"
	 viewBox="0 0 612 291.76" style="enable-background:new 0 0 612 291.76;" xml:space="preserve">
<style type="text/css">
	.st0{fill:none;}
	.st1{fill:#FFFFFF;}
</style>
<rect class="st0" width="612" height="291.76"/>
<g>
	<g>
		<path class="st1" d="M115.29,85.61H70.16V72.08h45.13V85.61z M70.16,98.18h37.4v13.53h-37.4V98.18z M70.16,126.3H115v13.53H70.16
			V126.3z"/>
		<path class="st1" d="M153.18,139.83l-30.64-67.75h14.98l17.68,38.46l17.59-38.46h14.98l-30.54,67.75H153.18z"/>
		<path class="st1" d="M308.21,139.83l-38.08-39.53v39.53h-13.53V72.08h4.25l37.4,37.88V72.08h13.53v67.75H308.21z"/>
		<path class="st1" d="M374.03,72.08v13.53h-18.75v54.22h-13.53V85.61h-18.85V72.08H374.03z"/>
		<path class="st1" d="M402.84,111.13c-2.22-0.58-6.38-1.64-10.24-4.25c-5.41-3.58-8.41-8.79-8.7-15.27
			c-0.29-5.41,1.45-10.15,4.93-13.82c5.03-5.22,12.27-6.67,15.75-6.67c9.86,0,15.37,3.58,20.3,6.77l2.22,1.45l-7.06,11.5l-2.41-1.55
			c-4.35-2.8-7.15-4.64-13.05-4.64c-0.87,0-4.25,0.68-5.99,2.51c-0.58,0.58-1.26,1.64-1.16,3.87c0.1,3.48,2.51,5.41,8.7,6.96
			c0.77,0.19,1.35,0.39,1.93,0.58c6.48,2.22,11.5,5.22,14.98,8.99c3.48,3.87,5.31,8.41,5.31,13.24c0,4.74-2.03,9.66-5.41,13.43
			c-3.96,4.44-9.47,6.96-15.56,6.96c-3,0-7.05-0.19-11.89-1.64c-6.09-1.93-11.5-5.31-16.14-10.24l9.86-9.28
			c7.15,7.63,15.17,7.63,18.17,7.63c5.61,0,7.44-5.12,7.44-6.86c0-3.67-4.15-7.06-11.21-9.47l-0.29-0.1L402.84,111.13z"/>
	</g>
	<g>
		<path class="st1" d="M236.99,219.96v-12.66h12.66v12.66H236.99z"/>
		<path class="st1" d="M421.69,186.03c0,19.33-15.75,35.08-35.08,35.08c-19.33,0-35.08-15.75-35.08-35.08
			c0-19.33,15.75-35.08,35.08-35.08C405.94,150.95,421.69,166.71,421.69,186.03z M365.44,186.03c0,11.69,9.47,21.16,21.16,21.16
			c11.69,0,21.16-9.47,21.16-21.16c0-11.69-9.47-21.16-21.16-21.16C374.92,164.87,365.44,174.34,365.44,186.03z"/>
		<path class="st1" d="M445.86,165.64v54.22h-13.53v-67.75h26.48c11.21,0,20.29,9.18,20.29,20.39c0,8.21-11.89,18.46-11.89,18.46
			l13.43,28.99h-14.4l-14.02-30.07l11.02-12.26c1.01-1.09,2.32-3.07,2.32-5.13c0-3.77-2.99-6.86-6.76-6.86H445.86z"/>
		<path class="st1" d="M509.46,188.93l-5.22,5.32v25.61h-13.53v-67.65h13.53v21.84l19.81-21.84h18.27l-23.68,26.48l24.26,41.17
			h-16.14L509.46,188.93z"/>
	</g>
	<polygon class="st1" points="244.04,85.61 244.04,72.08 198.9,72.08 198.9,72.2 198.85,72.2 198.85,139.83 243.75,139.83 
		243.75,126.3 212.32,126.3 212.32,111.71 236.3,111.71 236.3,98.18 212.32,98.18 212.32,85.61 	"/>
	<g>
		<path class="st1" d="M300.85,206.17l-6.33,13.78h-3.29l-30.92-67.74h14.98l18.07,38.07L300.85,206.17z M326.72,206.42l-6.2,13.53
			h-3.29l-11.31-24.84l-19.62-42.9h14.98L326.72,206.42z M322.26,182.55l14.3-30.33h14.98L330,199.27L322.26,182.55z"/>
	</g>
</g>
</svg>
