<svg height="81" width="70" xmlns="http://www.w3.org/2000/svg"><g fill="none" fill-rule="evenodd"><path d="M0 81h70V0H0z" fill="#fffffe"/><path d="M7.946 73.071h54.032v-3.887H7.946z" fill="#00233e"/><g fill="#a01d26"><path d="M42.52 60.584c0 .596.44 1.08.988 1.08h5.428l.004 4.365h-7.554c-2.346 0-3.566-2.056-3.566-4.604V42.1h4.693zM20.23 51.887l-7.185.003V46.71l7.184.003c1.444 0 2.613 1.158 2.613 2.59 0 1.427-1.17 2.585-2.613 2.585m0 9.525-7.184.007v-5.18h7.184c1.444 0 2.613 1.163 2.613 2.588 0 1.428-1.17 2.585-2.613 2.585m5.4-7.348c1.766-.58 3-2.446 3-5.295 0-4.32-3.283-6.679-5.978-6.679H7.946v23.94l14.705.002c2.695 0 5.977-2.353 5.977-6.672 0-2.851-1.233-4.716-2.998-5.296M7.946 11.886H61.98v-3.92H7.946z"/></g><path d="M30.606 38.96h5.099V15.023h-5.099z" fill="#00233e"/><path d="M30.606 66.03h5.099V42.098h-5.099z" fill="#a01d26"/><path d="M59.544 24.797H48.191V29.4l6.258-.003v4.915h-6.258c-2.91 0-4.4-3.257-4.4-7.316 0-4.066 1.49-7.408 4.4-7.408h11.353v-4.602H48.191c-5.898 0-9.807 3.766-9.807 12.01 0 8.728 3.909 11.918 9.807 11.918h11.353zM20.23 24.816l-7.185.003v-5.183l7.184.003c1.444 0 2.613 1.159 2.613 2.587s-1.17 2.59-2.613 2.59m0 9.53-7.184.004v-5.18l7.184.002c1.444 0 2.613 1.161 2.613 2.588s-1.17 2.587-2.613 2.587m5.4-7.35c1.766-.582 3-2.449 3-5.304 0-4.315-3.283-6.675-5.978-6.675H7.946V38.96l14.705.008c2.695 0 5.977-2.358 5.977-6.674 0-2.852-1.233-4.717-2.998-5.298" fill="#00233e"/><path d="M55.551 60.625c0 .593.443 1.077.991 1.077h5.43l.006 4.368h-7.555c-2.348 0-3.568-2.056-3.568-4.603v-19.33h4.693z" fill="#a01d26"/><path d="M58.91 58.608h.436v-.976h.34c.23 0 .39.031.482.083.153.088.232.28.232.564v.194l.01.08c0 .013.003.019.003.029.003.01.007.015.007.026h.407l-.015-.033a.415.415 0 0 1-.02-.128c-.002-.066-.006-.127-.006-.184v-.179a.683.683 0 0 0-.137-.382c-.09-.13-.23-.21-.424-.242a.91.91 0 0 0 .357-.118c.162-.106.242-.266.242-.485 0-.313-.127-.52-.382-.625-.14-.057-.366-.09-.672-.09h-.86zm1.236-1.33a1.209 1.209 0 0 1-.411.054h-.389v-.893h.367c.242 0 .413.032.522.093.108.063.165.181.165.36 0 .19-.085.319-.254.386zm1.255-1.48a2.157 2.157 0 0 0-1.587-.65c-.618 0-1.143.214-1.577.65-.44.44-.657.966-.657 1.585 0 .621.217 1.15.648 1.587.436.44.965.664 1.586.664.621 0 1.15-.224 1.587-.664.437-.436.657-.968.657-1.587s-.22-1.148-.657-1.585zm-.22.217c.37.377.557.832.557 1.368 0 .536-.187.994-.557 1.37-.376.38-.831.572-1.367.572-.535 0-.988-.192-1.364-.571a1.876 1.876 0 0 1-.557-1.371c0-.536.184-.991.56-1.368.377-.376.829-.567 1.36-.567s.99.191 1.368.567z" fill="#a01d26"/></g></svg>