<?xml version="1.0" encoding="utf-8"?>
<!-- Generator: Adobe Illustrator 19.0.0, SVG Export Plug-In . SVG Version: 6.00 Build 0)  -->
<svg version="1.1" id="Layer_1" xmlns="http://www.w3.org/2000/svg" xmlns:xlink="http://www.w3.org/1999/xlink" x="0px" y="0px"
	 viewBox="0 0 141.6 110.1" style="enable-background:new 0 0 141.6 110.1;" xml:space="preserve">
<style type="text/css">
	.st0{fill:#FFFFFF;stroke:#FFFFFF;stroke-miterlimit:10;}
</style>
<g>
	<g>
		<g>
			<path class="st0" d="M58.4,2.6h-4.2c0,0-1.1-2.1,0.8-2.5c1.3-0.3,4.4-0.1,5.3,0.8c0.9,0.9,1.1,3.9,0.9,5.5
				c-0.2,1.9-0.9,9.4-5.1,18.1C51.3,34.6,44,42,42.9,43c-1.1,1-3.7,2.8-4,3.8c-0.3,1,0,2.4,0.7,1.8c0.7-0.6,1.1-1.3,1.1-1.3
				s1.5-0.2,1.7,0.5c0.2,0.7-0.1,1.4-0.6,1.9c-0.5,0.5-1.9,1.5-3.3,1c-1.4-0.5-2-1.2-2.2-2.1c-0.2-0.9,0.1-2.2,1.2-3.5
				c1.1-1.3,6.8-7.2,8.9-9.7c2.1-2.5,5.5-7.2,7.7-12.2c2.1-4.7,3.4-10.1,4-12.6c0.5-2.1,0.6-2.8,0.6-5.2C58.7,4.2,58.4,2.6,58.4,2.6
				z"/>
			<path class="st0" d="M87.8,2.6H92c0,0,1.1-2.1-0.8-2.5c-1.3-0.3-4.4-0.1-5.3,0.8C85,1.8,84.8,4.8,85,6.4
				c0.2,1.9,0.9,9.4,5.1,18.1c4.8,10,12.1,17.4,13.2,18.4c1.1,1,3.7,2.8,4,3.8c0.3,1,0,2.4-0.7,1.8c-0.7-0.6-1.1-1.3-1.1-1.3
				s-1.5-0.2-1.7,0.5c-0.2,0.7,0.1,1.4,0.6,1.9c0.5,0.5,1.9,1.5,3.3,1c1.4-0.5,2-1.2,2.2-2.1c0.2-0.9-0.1-2.2-1.2-3.5
				c-1.1-1.3-6.8-7.2-8.9-9.7c-2.1-2.5-5.5-7.2-7.7-12.2c-2.1-4.7-3.4-10-4-12.6c-0.5-2.1-0.6-2.8-0.6-5.2
				C87.5,4.2,87.8,2.6,87.8,2.6z"/>
			<path class="st0" d="M61.7,13.3h22.1v3.2c0,0-0.1,1.3-1.1,1.3c-1,0-19.8,0-19.8,0s-1-0.4-1-1.1S61.7,13.3,61.7,13.3z"/>
			<path class="st0" d="M60.1,19.5h25.4v3.2c0,0-0.1,1.3-1.3,1.3c-1.2,0-22.8,0-22.8,0s-1.2-0.4-1.2-1.1
				C60.3,22.2,60.1,19.5,60.1,19.5z"/>
			<path class="st0" d="M57.8,25.9h30v3.2c0,0-0.1,1.3-1.5,1.3c-1.4,0-27,0-27,0s-1.4-0.4-1.4-1.1S57.8,25.9,57.8,25.9z"/>
			<path class="st0" d="M55.3,32.8H90v3.8c0,0-0.2,1.6-1.7,1.6c-1.6,0-31.2,0-31.2,0s-1.6-0.5-1.6-1.3C55.5,36,55.3,32.8,55.3,32.8z
				"/>
			<path class="st0" d="M50.5,41.2H95v4.1c0,0-0.2,1.6-2.2,1.6c-2,0-40.1,0-40.1,0s-2-0.5-2-1.4C50.7,44.6,50.5,41.2,50.5,41.2z"/>
			<path class="st0" d="M44.7,49.6H101v4.5c0,0-0.3,1.8-2.8,1.8s-50.7,0-50.7,0S45,55.3,45,54.3C45,53.4,44.7,49.6,44.7,49.6z"/>
		</g>
	</g>
	<g>
		<path class="st0" d="M22,75l-2.2,2.2c-0.2-0.7-0.3-1.4-0.3-2.1c0-2.6,1.1-4.7,3.2-6.3c1.6-1.2,3.8-1.7,6.7-1.7h4.6
			c1.7,0,3.5-0.1,5.3-0.2l-1.1,2.9l-0.2,0.5c-0.2,0.5-0.5,0.8-0.9,0.8c-0.1,0-0.1,0-0.2,0c0.1-0.5,0.2-0.8,0.2-1.1
			c0-0.6-0.3-1-1-1.1c-0.6-0.2-2.3-0.2-4.8-0.2h-1.3L29,75.3h2.7c1.6,0,3-0.1,4.2-0.2c-1.1,1.3-2.1,1.9-3.2,1.9
			c-0.6,0-1.5,0-2.6-0.1c-0.5,0-0.8,0-1,0h-0.3L28.7,78c-0.2,1.8-0.5,3-0.9,3.7s-1.2,1.5-2.5,2.2l3,0.2l1.2,0.1
			c0.9,0.1,1.9,0.1,3.1,0.1c2,0,3.8-0.7,5.1-2c0.2,0.2,0.2,0.3,0.2,0.5c0,0.3-0.5,0.8-1.5,1.6c-1.4,1.2-3,1.8-4.7,1.8
			c-1.6,0-3.9-0.1-6.8-0.4l-5.2-0.5c-0.2,0-0.8,0-1.9-0.1l2.5-1.9c0.9,0.2,2,0.3,3.3,0.4c0.9-0.4,1.5-0.9,1.8-1.5
			c0.3-0.6,0.6-1.9,0.8-3.9l1.1-9.8H27c-1.8,0-3.2,0.4-4.2,1.1c-1,0.7-1.5,1.8-1.5,3C21.3,73.4,21.5,74.2,22,75z"/>
		<path class="st0" d="M39.1,85.3l1.9-1.6c0.7,0.8,1.6,1.2,2.7,1.2c1.3,0,2-0.6,2-1.9c0-0.7-0.6-1.7-1.8-3l-0.8-0.8
			c-1.2-1.2-1.7-2.2-1.7-2.9c0-1.1,0.5-2,1.4-2.7c0.9-0.7,2.1-1.1,3.4-1.1c0.7,0,1.5,0.1,2.4,0.4l-1.7,1.5c-0.7-0.5-1.5-0.8-2.3-0.8
			c-1,0-1.5,0.4-1.5,1.3c0,0.6,0.6,1.5,1.7,2.7l0.9,0.9c1.3,1.3,1.9,2.4,1.9,3.2c0,1.2-0.6,2.2-1.7,3.1c-1.1,0.9-2.4,1.3-3.9,1.3
			C40.9,86.1,40,85.8,39.1,85.3z"/>
		<path class="st0" d="M59.8,72.8l-1.6,1.9c-0.7-0.3-1.4-0.5-2.1-0.5c-1.2,0-2.2,0.5-2.9,1.5c-0.7,1-1,2.4-1,4.2
			c0,1.3,0.3,2.3,0.8,3c0.5,0.8,1.2,1.2,2,1.2c1.4,0,2.5-0.9,3.2-2.7c0.2,0.2,0.3,0.4,0.3,0.6c0,0.8-0.6,1.6-1.8,2.6
			s-2.3,1.4-3.3,1.4c-1,0-1.8-0.4-2.4-1.2c-0.6-0.8-0.9-1.8-0.9-3c0-2.4,0.8-4.6,2.4-6.5c1.6-2,3.4-2.9,5.4-2.9
			C58.7,72.4,59.3,72.5,59.8,72.8z"/>
		<path class="st0" d="M69.7,80.2c-1,1.7-2.2,3.1-3.4,4.2c-1.3,1.1-2.3,1.6-3.3,1.6c-1.3,0-1.9-1-1.9-3.1c0-2.8,0.9-5.2,2.8-7.3
			s4-3.1,6.6-3.1c1,0,1.8,0.1,2.5,0.4c0,0.2-0.1,0.3-0.1,0.3L72.6,74c-0.1,0.5-0.2,0.8-0.2,0.9L71.6,81l-0.1,0.9
			c-0.1,0.9-0.2,1.5-0.2,1.8c0,0.4,0.1,0.6,0.3,0.6c0.8,0,1.6-0.9,2.4-2.6c0.2,0.1,0.4,0.3,0.4,0.4c0,0.3-0.4,1-1.2,2
			c-1.1,1.3-2.1,2-3,2c-0.7,0-1-0.5-1-1.4c0-0.3,0-0.7,0.1-1.2l0.1-1.1l0.2-1.2L69.7,80.2z M70.5,74.7C69.7,74.2,68.8,74,68,74
			c-1.3,0-2.4,0.8-3.3,2.4s-1.3,3.5-1.3,5.9c0,1.2,0.4,1.8,1.1,1.8c0.8,0,1.8-0.6,3-1.9c1.6-1.7,2.5-3.7,2.9-6L70.5,74.7z"/>
		<path class="st0" d="M81.4,81.6c0.3,0.1,0.4,0.3,0.4,0.5c0,0.7-0.5,1.5-1.5,2.5c-1,1-1.8,1.5-2.5,1.5c-0.8,0-1.2-0.6-1.2-1.7
			c0-0.7,0-1.4,0.1-2.1l0.2-1.2l1.1-9.7c0.3-2.9,1.3-5.4,3-7.4s3.6-3,5.8-3c0.5,0,1,0,1.4,0.1l-2,2c-0.4-0.1-0.9-0.2-1.5-0.2
			c-1.4,0-2.4,0.5-3.1,1.5c-0.7,1-1.2,2.6-1.4,5l-1.3,11.6c-0.1,0.9-0.2,1.5-0.2,1.9c0,0.8,0.1,1.2,0.4,1.2c0.3,0,0.7-0.3,1.2-0.8
			C80.9,82.9,81.2,82.3,81.4,81.6z"/>
		<path class="st0" d="M90.2,81.7c0.2,0.1,0.4,0.3,0.4,0.4c0,0.3-0.4,1-1.2,2c-1.1,1.3-2.1,2-3,2c-0.7,0-1-0.4-1-1.3
			c0-0.4,0.1-1.5,0.4-3.5l0.5-3.8l0.1-1l0.1-0.8c0-0.3,0.1-0.6,0.1-0.8c0-0.5-0.1-0.7-0.4-0.7c-0.7,0-1.5,0.8-2.3,2.4
			c-0.2-0.2-0.3-0.3-0.3-0.5c0-0.6,0.5-1.3,1.6-2.3s1.9-1.4,2.5-1.4c0.7,0,1,0.5,1,1.4c0,0.2,0,0.6-0.1,1.1l-0.1,0.9
			c0,0.1-0.1,0.4-0.2,1.1l-0.6,4l-0.1,0.9c-0.1,0.9-0.2,1.5-0.2,1.8c0,0.4,0.1,0.6,0.3,0.6C88.5,84.2,89.3,83.4,90.2,81.7z
			 M87.4,70.6l1.2-2.9c1-0.4,1.9-1,2.6-1.8c0.1,0.1,0.1,0.3,0.1,0.4C91.2,67.6,90,69,87.4,70.6z"/>
		<path class="st0" d="M100.4,81.3c0.2,0.2,0.3,0.3,0.3,0.6c0,0.3-0.3,0.8-0.9,1.5c-1.6,1.8-3.1,2.7-4.7,2.7c-0.9,0-1.7-0.4-2.3-1.1
			c-0.6-0.7-0.9-1.7-0.9-2.9c0-2.1,0.8-4.2,2.4-6.4c1.6-2.2,3.2-3.2,4.7-3.2c1.1,0,1.7,0.6,1.7,1.8c0,1.4-0.7,2.7-2,4
			c-1.3,1.3-2.9,2.2-4.8,2.7c0.2,2.2,1.1,3.3,2.6,3.3C98.1,84.2,99.4,83.3,100.4,81.3z M94,79.2c0.3,0.1,0.5,0.1,0.7,0.1
			c1.1,0,2.2-0.4,3-1.1s1.3-1.5,1.3-2.5c0-1.1-0.6-1.6-1.7-1.6c-0.8,0-1.5,0.5-2.2,1.4C94.6,76.6,94.1,77.8,94,79.2z"/>
		<path class="st0" d="M107.1,78.3c2.1-3.9,4.1-5.8,6.1-5.8c0.5,0,1,0.1,1.6,0.4l-2,2.1c-0.3-0.2-0.7-0.2-1.1-0.2c-1,0-2,0.8-3,2.3
			c-1.1,1.6-1.7,3.2-1.9,4.9l-0.4,3.4l-2.1,0.7l0-0.4l0.1-0.9l0.1-0.9l0.7-6.6l0.1-0.7c0.1-0.5,0.1-1,0.1-1.3c0-0.6-0.2-0.8-0.5-0.8
			c-0.7,0-1.5,0.8-2.2,2.4c-0.2-0.2-0.3-0.4-0.3-0.5c0-0.6,0.5-1.3,1.5-2.2c1-0.9,1.8-1.4,2.4-1.4c0.8,0,1.2,0.5,1.2,1.6
			c0,0.3,0,0.6-0.1,1l-0.1,1l-0.1,1.2L107.1,78.3z"/>
		<path class="st0" d="M113.6,85.3l1.9-1.6c0.7,0.8,1.6,1.2,2.7,1.2c1.3,0,2-0.6,2-1.9c0-0.7-0.6-1.7-1.8-3l-0.8-0.8
			c-1.2-1.2-1.7-2.2-1.7-2.9c0-1.1,0.5-2,1.4-2.7s2.1-1.1,3.4-1.1c0.7,0,1.5,0.1,2.4,0.4l-1.7,1.5c-0.7-0.5-1.5-0.8-2.3-0.8
			c-1,0-1.5,0.4-1.5,1.3c0,0.6,0.6,1.5,1.7,2.7l0.9,0.9c1.3,1.3,1.9,2.4,1.9,3.2c0,1.2-0.6,2.2-1.7,3.1c-1.1,0.9-2.4,1.3-3.9,1.3
			C115.5,86.1,114.5,85.8,113.6,85.3z"/>
		<path class="st0" d="M7.8,98.9l0.1-1c0.3-2.4,1.1-4.4,2.5-6s2.9-2.4,4.7-2.4c0.4,0,0.8,0,1.1,0.1l-1.6,1.6
			c-0.4-0.1-0.8-0.2-1.2-0.2c-1.1,0-2,0.4-2.5,1.2c-0.6,0.8-0.9,2.1-1.1,4l-1,9.3l-0.1,0.7c-0.1,0.6-0.1,1.1-0.1,1.4
			c0,0.4,0.1,0.5,0.3,0.5c0.6,0,1.2-0.7,1.9-2.1c0.2,0.1,0.3,0.2,0.3,0.4c0,0.3-0.3,0.8-0.9,1.6c-0.8,1.1-1.6,1.6-2.4,1.6
			c-0.6,0-0.9-0.4-0.9-1.2c0-0.3,0-0.9,0.1-1.7l0.1-1l0.1-0.8c-0.5,1.1-1.3,2.2-2.5,3.2c-1.1,1-2.1,1.5-2.8,1.5
			c-1.1,0-1.6-0.8-1.6-2.5c0-2.2,0.7-4.1,2.2-5.8s3.1-2.6,4.9-2.6C7.5,98.8,7.6,98.8,7.8,98.9z M7.6,100.5C7,100.1,6.4,100,5.9,100
			c-1.1,0-2,0.6-2.7,1.9c-0.7,1.3-1.1,2.8-1.1,4.8c0,1,0.3,1.5,0.9,1.5c0.7,0,1.5-0.5,2.4-1.5c1.2-1.3,1.9-2.9,2.1-4.8L7.6,100.5z"
			/>
		<path class="st0" d="M19,105.8c0.2,0.1,0.3,0.3,0.3,0.4c0,0.2-0.2,0.6-0.7,1.2c-1.3,1.5-2.5,2.2-3.8,2.2c-0.8,0-1.4-0.3-1.9-0.9
			s-0.7-1.4-0.7-2.3c0-1.7,0.6-3.4,1.9-5.2s2.6-2.6,3.8-2.6c0.9,0,1.4,0.5,1.4,1.5c0,1.1-0.5,2.2-1.6,3.2s-2.4,1.8-3.9,2.2
			c0.1,1.8,0.9,2.7,2.1,2.7C17.2,108.2,18.2,107.4,19,105.8z M13.8,104.2c0.2,0.1,0.4,0.1,0.6,0.1c0.9,0,1.7-0.3,2.4-0.9
			c0.7-0.6,1-1.2,1-2c0-0.9-0.4-1.3-1.3-1.3c-0.6,0-1.2,0.4-1.7,1.1C14.3,102.1,14,103,13.8,104.2z"/>
		<path class="st0" d="M31.8,106.1c0.2,0.1,0.3,0.2,0.3,0.4c0,0.5-0.4,1.2-1.2,2s-1.5,1.2-2,1.2c-0.6,0-0.9-0.4-0.9-1.3
			c0-0.5,0-1.1,0.1-1.7l0.1-1l0.9-7.8c0.3-2.4,1.1-4.4,2.4-6c1.4-1.6,2.9-2.4,4.7-2.4c0.4,0,0.8,0,1.1,0.1l-1.6,1.6
			c-0.4-0.1-0.8-0.2-1.2-0.2c-1.1,0-2,0.4-2.5,1.2c-0.6,0.8-0.9,2.1-1.1,4l-1,9.4c-0.1,0.7-0.1,1.2-0.1,1.6c0,0.7,0.1,1,0.3,1
			c0.3,0,0.6-0.2,1-0.7S31.6,106.7,31.8,106.1z"/>
		<path class="st0" d="M40.4,105c-0.8,1.4-1.8,2.5-2.8,3.4c-1,0.9-1.9,1.3-2.6,1.3c-1,0-1.5-0.8-1.5-2.5c0-2.3,0.7-4.2,2.2-5.9
			c1.5-1.7,3.3-2.5,5.3-2.5c0.8,0,1.4,0.1,2,0.3c0,0.1-0.1,0.2-0.1,0.2l-0.1,0.6c-0.1,0.4-0.1,0.6-0.1,0.7l-0.7,4.9l-0.1,0.7
			c-0.1,0.7-0.1,1.2-0.1,1.4c0,0.3,0.1,0.5,0.3,0.5c0.6,0,1.3-0.7,1.9-2.1c0.2,0.1,0.3,0.2,0.3,0.4c0,0.3-0.3,0.8-1,1.6
			c-0.9,1.1-1.7,1.6-2.4,1.6c-0.5,0-0.8-0.4-0.8-1.1c0-0.2,0-0.5,0.1-0.9l0.1-0.9l0.1-1L40.4,105z M41,100.5
			c-0.7-0.4-1.4-0.6-2.1-0.6c-1,0-1.9,0.6-2.6,1.9s-1.1,2.9-1.1,4.7c0,1,0.3,1.5,0.9,1.5c0.7,0,1.5-0.5,2.4-1.5c1.3-1.4,2-3,2.3-4.8
			L41,100.5z"/>
		<path class="st0" d="M59.5,99l-1.3,1.5c-0.6-0.2-1.2-0.4-1.7-0.4c-1,0-1.8,0.4-2.3,1.2c-0.6,0.8-0.8,2-0.8,3.4
			c0,1,0.2,1.8,0.6,2.5c0.4,0.6,0.9,0.9,1.6,0.9c1.1,0,2-0.7,2.6-2.2c0.2,0.2,0.2,0.3,0.2,0.5c0,0.6-0.5,1.3-1.5,2.1
			c-1,0.8-1.9,1.1-2.7,1.1c-0.8,0-1.4-0.3-1.9-0.9s-0.7-1.4-0.7-2.4c0-1.9,0.7-3.7,2-5.3c1.3-1.6,2.8-2.4,4.4-2.4
			C58.6,98.7,59.1,98.8,59.5,99z"/>
		<path class="st0" d="M63.5,103.2c0.9-1.3,1.8-2.4,2.9-3.3s1.9-1.3,2.7-1.3c0.7,0,1.1,0.5,1.1,1.5c0,0.3,0,0.8-0.1,1.4l-0.6,4.2
			c-0.1,0.8-0.2,1.5-0.2,2c0,0.4,0.1,0.6,0.3,0.6c0.5,0,1.1-0.7,1.9-2.1c0.2,0.1,0.3,0.2,0.3,0.3c0,0.5-0.4,1.1-1.3,1.9
			c-0.8,0.8-1.5,1.2-2,1.2c-0.6,0-0.9-0.4-0.9-1.3c0-0.6,0.1-1.5,0.2-2.5l0.4-2.7c0.1-0.9,0.2-1.6,0.2-2.1c0-0.6-0.2-0.9-0.6-0.9
			c-1,0-1.9,0.6-2.9,1.9c-1,1.3-1.6,2.7-1.7,4.2l-0.3,2.7l-1.7,0.7l0-0.3l0.1-0.8l0.1-0.8l1.1-9.8c0.3-2.3,1.1-4.3,2.6-5.9
			c1.5-1.6,3.1-2.5,4.9-2.5c0.4,0,0.7,0,1.1,0.1l-1.6,1.6c-0.4-0.1-0.8-0.2-1.2-0.2c-2.2,0-3.5,1.7-3.9,5.2L63.5,103.2z"/>
		<path class="st0" d="M79.8,105c-0.8,1.4-1.8,2.5-2.8,3.4c-1,0.9-1.9,1.3-2.6,1.3c-1,0-1.5-0.8-1.5-2.5c0-2.3,0.7-4.2,2.2-5.9
			c1.5-1.7,3.3-2.5,5.3-2.5c0.8,0,1.4,0.1,2,0.3c0,0.1-0.1,0.2-0.1,0.2l-0.1,0.6c-0.1,0.4-0.1,0.6-0.1,0.7l-0.7,4.9l-0.1,0.7
			c-0.1,0.7-0.1,1.2-0.1,1.4c0,0.3,0.1,0.5,0.3,0.5c0.6,0,1.3-0.7,1.9-2.1c0.2,0.1,0.3,0.2,0.3,0.4c0,0.3-0.3,0.8-1,1.6
			c-0.9,1.1-1.7,1.6-2.4,1.6c-0.5,0-0.8-0.4-0.8-1.1c0-0.2,0-0.5,0.1-0.9l0.1-0.9l0.1-1L79.8,105z M80.5,100.5
			c-0.7-0.4-1.4-0.6-2.1-0.6c-1,0-1.9,0.6-2.6,1.9c-0.7,1.3-1.1,2.9-1.1,4.7c0,1,0.3,1.5,0.9,1.5c0.7,0,1.5-0.5,2.4-1.5
			c1.3-1.4,2-3,2.3-4.8L80.5,100.5z"/>
		<path class="st0" d="M92.8,105c-0.9,1.3-1.8,2.4-2.9,3.3c-1.1,0.9-1.9,1.4-2.6,1.4c-0.7,0-1.1-0.5-1.1-1.5c0-0.4,0-1,0.1-1.8
			l0.4-3.7c0-0.1,0-0.3,0.1-0.7l0.1-0.7c0-0.2,0-0.4,0-0.6c0-0.4-0.1-0.6-0.4-0.6c-0.6,0-1.2,0.6-1.8,1.9c-0.1-0.1-0.2-0.2-0.2-0.4
			c0-0.5,0.4-1.1,1.2-1.8s1.5-1.2,2-1.2c0.6,0,0.9,0.4,0.9,1.3c0,0.2,0,0.4,0,0.7l-0.1,0.9l-0.1,0.9l-0.3,3.2
			c-0.1,0.5-0.1,1.1-0.1,1.7c0,0.5,0.2,0.8,0.6,0.8c0.8,0,1.8-0.7,2.9-2.1c1.1-1.4,1.7-2.8,1.9-4.1l0.4-2.7l1.8-0.6
			c-0.2,0.9-0.4,1.6-0.5,2.3l-0.7,4.7c0,0.3-0.1,0.5-0.1,0.7l-0.1,0.6c0,0.4-0.1,0.6-0.1,0.8c0,0.3,0.1,0.5,0.3,0.5
			c0.6,0,1.3-0.7,1.9-2.1c0.2,0.1,0.3,0.2,0.3,0.4c0,0.3-0.3,0.8-1,1.6c-0.9,1.1-1.7,1.6-2.4,1.6c-0.5,0-0.8-0.4-0.8-1.1
			c0-0.2,0-0.5,0.1-0.9l0.1-0.9c0.1-0.5,0.1-0.8,0.1-1L92.8,105z"/>
		<path class="st0" d="M105.1,98.9l0.1-1c0.3-2.4,1.1-4.4,2.5-6c1.4-1.6,2.9-2.4,4.7-2.4c0.4,0,0.8,0,1.1,0.1l-1.6,1.6
			c-0.4-0.1-0.8-0.2-1.2-0.2c-1.1,0-2,0.4-2.5,1.2s-0.9,2.1-1.1,4l-1,9.3l-0.1,0.7c-0.1,0.6-0.1,1.1-0.1,1.4c0,0.4,0.1,0.5,0.3,0.5
			c0.6,0,1.2-0.7,1.9-2.1c0.2,0.1,0.3,0.2,0.3,0.4c0,0.3-0.3,0.8-0.9,1.6c-0.8,1.1-1.6,1.6-2.4,1.6c-0.6,0-0.9-0.4-0.9-1.2
			c0-0.3,0-0.9,0.1-1.7l0.1-1l0.1-0.8c-0.5,1.1-1.3,2.2-2.5,3.2c-1.1,1-2.1,1.5-2.8,1.5c-1.1,0-1.6-0.8-1.6-2.5
			c0-2.2,0.7-4.1,2.2-5.8s3.1-2.6,4.9-2.6C104.8,98.8,104.9,98.8,105.1,98.9z M105,100.5c-0.6-0.3-1.2-0.5-1.7-0.5
			c-1.1,0-2,0.6-2.7,1.9c-0.7,1.3-1.1,2.8-1.1,4.8c0,1,0.3,1.5,0.9,1.5c0.7,0,1.5-0.5,2.4-1.5c1.2-1.3,1.9-2.9,2.1-4.8L105,100.5z"
			/>
		<path class="st0" d="M114.9,106.2c0.2,0.1,0.3,0.2,0.3,0.3c0,0.3-0.3,0.8-1,1.6c-0.9,1.1-1.7,1.6-2.4,1.6c-0.5,0-0.8-0.4-0.8-1.1
			c0-0.3,0.1-1.2,0.3-2.8l0.4-3l0.1-0.8l0.1-0.6c0-0.3,0.1-0.5,0.1-0.7c0-0.4-0.1-0.6-0.3-0.6c-0.6,0-1.2,0.6-1.9,1.9
			c-0.1-0.1-0.2-0.3-0.2-0.4c0-0.5,0.4-1.1,1.3-1.8s1.5-1.2,2-1.2c0.6,0,0.8,0.4,0.8,1.2c0,0.1,0,0.5-0.1,0.9l-0.1,0.8
			c0,0.1,0,0.4-0.1,0.9l-0.5,3.2l-0.1,0.7c-0.1,0.7-0.1,1.2-0.1,1.4c0,0.3,0.1,0.5,0.3,0.5C113.6,108.2,114.3,107.5,114.9,106.2z
			 M112.7,97.2l0.9-2.3c0.8-0.3,1.5-0.8,2.1-1.4c0.1,0.1,0.1,0.2,0.1,0.3C115.8,94.8,114.8,96,112.7,97.2z"/>
		<path class="st0" d="M123.2,105.8c0.2,0.1,0.3,0.3,0.3,0.4c0,0.2-0.2,0.6-0.7,1.2c-1.3,1.5-2.5,2.2-3.8,2.2
			c-0.8,0-1.4-0.3-1.9-0.9s-0.7-1.4-0.7-2.3c0-1.7,0.6-3.4,1.9-5.2s2.6-2.6,3.8-2.6c0.9,0,1.4,0.5,1.4,1.5c0,1.1-0.5,2.2-1.6,3.2
			c-1.1,1-2.4,1.8-3.9,2.2c0.1,1.8,0.9,2.7,2.1,2.7C121.3,108.2,122.4,107.4,123.2,105.8z M118,104.2c0.2,0.1,0.4,0.1,0.6,0.1
			c0.9,0,1.7-0.3,2.4-0.9c0.7-0.6,1-1.2,1-2c0-0.9-0.4-1.3-1.3-1.3c-0.6,0-1.2,0.4-1.7,1.1C118.5,102.1,118.1,103,118,104.2z
			 M122.1,97.2c-0.9-0.6-1.7-1.6-2.3-3.2l0.9-0.9c0.7,1.5,1.5,2.5,2.3,3L122.1,97.2z"/>
		<path class="st0" d="M128.6,103.4c1.7-3.1,3.3-4.7,4.9-4.7c0.4,0,0.8,0.1,1.3,0.3l-1.6,1.7c-0.2-0.1-0.5-0.2-0.9-0.2
			c-0.8,0-1.6,0.6-2.5,1.9c-0.9,1.3-1.4,2.6-1.5,3.9l-0.3,2.7l-1.7,0.6l0-0.3l0.1-0.7l0.1-0.7l0.6-5.3l0.1-0.6
			c0.1-0.4,0.1-0.8,0.1-1.1c0-0.5-0.1-0.7-0.4-0.7c-0.6,0-1.2,0.6-1.8,1.9c-0.2-0.1-0.3-0.3-0.3-0.4c0-0.5,0.4-1.1,1.3-1.8
			c0.8-0.8,1.5-1.1,1.9-1.1c0.6,0,1,0.4,1,1.3c0,0.2,0,0.5-0.1,0.8l-0.1,0.8l-0.1,0.9L128.6,103.4z"/>
		<path class="st0" d="M141.1,105.8c0.2,0.1,0.3,0.3,0.3,0.4c0,0.2-0.2,0.6-0.7,1.2c-1.3,1.5-2.5,2.2-3.8,2.2
			c-0.8,0-1.4-0.3-1.9-0.9s-0.7-1.4-0.7-2.3c0-1.7,0.6-3.4,1.9-5.2s2.6-2.6,3.8-2.6c0.9,0,1.4,0.5,1.4,1.5c0,1.1-0.5,2.2-1.6,3.2
			c-1.1,1-2.4,1.8-3.9,2.2c0.1,1.8,0.9,2.7,2.1,2.7C139.2,108.2,140.3,107.4,141.1,105.8z M135.9,104.2c0.2,0.1,0.4,0.1,0.6,0.1
			c0.9,0,1.7-0.3,2.4-0.9c0.7-0.6,1-1.2,1-2c0-0.9-0.4-1.3-1.3-1.3c-0.6,0-1.2,0.4-1.7,1.1C136.4,102.1,136,103,135.9,104.2z"/>
	</g>
</g>
</svg>
